<svg width="31" height="31" viewBox="0 0 31 31" fill="none" xmlns="http://www.w3.org/2000/svg">
<g clip-path="url(#clip0_1_26)">
<path d="M15.5 2.79388C19.6385 2.79388 20.1293 2.80937 21.7646 2.88429C25.9651 3.07546 27.9271 5.0685 28.1183 9.238C28.1932 10.872 28.2074 11.3628 28.2074 15.5013C28.2074 19.6411 28.1919 20.1306 28.1183 21.7646C27.9258 25.9302 25.969 27.9271 21.7646 28.1183C20.1293 28.1932 19.6411 28.2087 15.5 28.2087C11.3615 28.2087 10.8707 28.1932 9.23671 28.1183C5.02587 27.9258 3.07417 25.9238 2.883 21.7633C2.80808 20.1293 2.79258 19.6398 2.79258 15.5C2.79258 11.3615 2.80938 10.872 2.883 9.23671C3.07546 5.0685 5.03233 3.07417 9.23671 2.883C10.872 2.80938 11.3615 2.79388 15.5 2.79388ZM15.5 0C11.2905 0 10.7635 0.0180833 9.11012 0.093C3.48104 0.351333 0.352625 3.47458 0.0942917 9.10883C0.0180833 10.7635 0 11.2905 0 15.5C0 19.7095 0.0180833 20.2378 0.093 21.8912C0.351333 27.5202 3.47458 30.6487 9.10883 30.907C10.7635 30.9819 11.2905 31 15.5 31C19.7095 31 20.2378 30.9819 21.8912 30.907C27.5151 30.6487 30.6512 27.5254 30.9057 21.8912C30.9819 20.2378 31 19.7095 31 15.5C31 11.2905 30.9819 10.7635 30.907 9.11012C30.6538 3.48621 27.5267 0.352625 21.8925 0.0942917C20.2378 0.0180833 19.7095 0 15.5 0ZM15.5 7.54075C11.1045 7.54075 7.54075 11.1045 7.54075 15.5C7.54075 19.8955 11.1045 23.4605 15.5 23.4605C19.8955 23.4605 23.4593 19.8968 23.4593 15.5C23.4593 11.1045 19.8955 7.54075 15.5 7.54075ZM15.5 20.6667C12.6467 20.6667 10.3333 18.3546 10.3333 15.5C10.3333 12.6467 12.6467 10.3333 15.5 10.3333C18.3533 10.3333 20.6667 12.6467 20.6667 15.5C20.6667 18.3546 18.3533 20.6667 15.5 20.6667ZM23.7744 5.36688C22.7462 5.36688 21.9131 6.2 21.9131 7.22687C21.9131 8.25375 22.7462 9.08687 23.7744 9.08687C24.8013 9.08687 25.6331 8.25375 25.6331 7.22687C25.6331 6.2 24.8013 5.36688 23.7744 5.36688Z" fill="black"/>
</g>
<defs>
<clipPath id="clip0_1_26">
<rect width="31" height="31" fill="white"/>
</clipPath>
</defs>
</svg>
